<svg width="29" height="22" viewBox="0 0 29 22" fill="none" xmlns="http://www.w3.org/2000/svg">
<path d="M24.0746 1.8425C22.2349 0.98175 20.2678 0.356196 18.2113 0C17.9587 0.456631 17.6637 1.07081 17.4602 1.55938C15.2741 1.23062 13.108 1.23062 10.9621 1.55938C10.7587 1.07081 10.4569 0.456631 10.2021 0C8.14334 0.356196 6.174 0.984048 4.33431 1.84705C0.623637 7.45436 -0.382265 12.9224 0.120687 18.3128C2.5818 20.1507 4.96691 21.2672 7.31178 21.9977C7.89074 21.2009 8.40709 20.3539 8.85192 19.4612C8.00473 19.1393 7.1933 18.742 6.4266 18.2808C6.63001 18.1302 6.82897 17.9726 7.02119 17.8105C11.6975 19.9977 16.7785 19.9977 21.3989 17.8105C21.5934 17.9726 21.7923 18.1302 21.9935 18.2808C21.2245 18.7443 20.4109 19.1416 19.5637 19.4635C20.0085 20.3539 20.5227 21.2032 21.1038 22C23.451 21.2694 25.8383 20.153 28.2994 18.3128C28.8895 12.064 27.2913 6.64613 24.0746 1.8425ZM9.489 14.9977C8.08522 14.9977 6.934 13.6872 6.934 12.0913C6.934 10.4955 8.06063 9.18267 9.489 9.18267C10.9174 9.18267 12.0686 10.4932 12.044 12.0913C12.0462 13.6872 10.9174 14.9977 9.489 14.9977ZM18.9311 14.9977C17.5273 14.9977 16.3761 13.6872 16.3761 12.0913C16.3761 10.4955 17.5027 9.18267 18.9311 9.18267C20.3595 9.18267 21.5107 10.4932 21.4861 12.0913C21.4861 13.6872 20.3595 14.9977 18.9311 14.9977Z" fill="#5865F2"/>
</svg>
