<svg width="28" height="28" fill="none" xmlns="http://www.w3.org/2000/svg"><g clip-path="url(#a)"><path d="M8.202.098c-1.49.07-2.507.308-3.396.657-.92.36-1.7.84-2.477 1.62a6.858 6.858 0 0 0-1.61 2.48c-.345.892-.578 1.91-.644 3.4-.066 1.491-.08 1.97-.073 5.772.007 3.802.024 4.278.096 5.772.071 1.49.308 2.506.657 3.396.36.92.84 1.7 1.62 2.476a6.85 6.85 0 0 0 2.483 1.61c.89.344 1.909.579 3.399.644 1.49.066 1.97.08 5.77.073 3.801-.007 4.28-.024 5.773-.095 1.493-.07 2.505-.309 3.395-.657.92-.36 1.7-.84 2.476-1.62a6.862 6.862 0 0 0 1.61-2.482c.345-.89.579-1.91.644-3.398.065-1.494.08-1.972.073-5.773-.007-3.801-.024-4.278-.095-5.77-.071-1.494-.308-2.508-.657-3.398-.36-.92-.84-1.7-1.62-2.476a6.832 6.832 0 0 0-2.482-1.61c-.891-.344-1.909-.58-3.399-.644-1.49-.064-1.97-.08-5.772-.073-3.802.007-4.278.023-5.771.096Zm.163 25.309c-1.365-.06-2.106-.287-2.6-.476a4.359 4.359 0 0 1-1.612-1.044 4.313 4.313 0 0 1-1.05-1.608c-.192-.494-.423-1.235-.487-2.6-.07-1.475-.084-1.918-.092-5.655-.008-3.738.006-4.18.071-5.656.058-1.364.286-2.106.476-2.6a4.335 4.335 0 0 1 1.044-1.612 4.322 4.322 0 0 1 1.608-1.05c.494-.193 1.234-.422 2.598-.487 1.477-.07 1.92-.084 5.656-.092 3.738-.008 4.181.006 5.658.07 1.364.06 2.106.286 2.6.477a4.33 4.33 0 0 1 1.611 1.044c.492.49.795.954 1.05 1.609.194.492.423 1.232.487 2.597.07 1.476.086 1.919.093 5.656.007 3.737-.006 4.18-.071 5.656-.06 1.365-.286 2.106-.476 2.6a4.338 4.338 0 0 1-1.045 1.612 4.324 4.324 0 0 1-1.608 1.05c-.492.193-1.234.422-2.597.487-1.476.07-1.919.084-5.657.092-3.739.009-4.18-.006-5.656-.07m11.412-18.89a1.68 1.68 0 1 0 3.36-.005 1.68 1.68 0 0 0-3.36.006ZM6.812 14.015a7.19 7.19 0 1 0 14.376-.03 7.19 7.19 0 0 0-14.376.03Zm2.521-.005a4.667 4.667 0 1 1 9.335-.018 4.667 4.667 0 0 1-9.335.018Z" fill="#fff"/></g><defs><clipPath id="a"><path fill="#fff" d="M0 0h28v28H0z"/></clipPath></defs></svg>