<svg width="29" height="22" fill="none" xmlns="http://www.w3.org/2000/svg"><path d="M24.075 1.843A23.147 23.147 0 0 0 18.21 0a17.2 17.2 0 0 0-.75 1.56 21.53 21.53 0 0 0-6.499 0 16.675 16.675 0 0 0-.76-1.56 23.07 23.07 0 0 0-5.868 1.847C.624 7.454-.382 12.922.121 18.313c2.46 1.838 4.846 2.954 7.19 3.685a17.883 17.883 0 0 0 1.54-2.537 15.142 15.142 0 0 1-2.424-1.18c.203-.15.402-.308.594-.47 4.676 2.187 9.758 2.187 14.378 0 .194.162.393.32.595.47-.77.463-1.583.86-2.43 1.183.445.89.959 1.74 1.54 2.536 2.347-.73 4.734-1.847 7.195-3.687.59-6.249-1.008-11.667-4.224-16.47ZM9.489 14.997c-1.404 0-2.555-1.31-2.555-2.907 0-1.595 1.127-2.908 2.555-2.908 1.428 0 2.58 1.31 2.555 2.908.002 1.596-1.127 2.907-2.555 2.907Zm9.442 0c-1.404 0-2.555-1.31-2.555-2.907 0-1.595 1.127-2.908 2.555-2.908 1.428 0 2.58 1.31 2.555 2.908 0 1.596-1.127 2.907-2.555 2.907Z" fill="#fff"/></svg>