<svg width="32" height="32" fill="none" xmlns="http://www.w3.org/2000/svg"><g clip-path="url(#a)"><path d="M24.786 0H7.214A7.214 7.214 0 0 0 0 7.214v17.572A7.214 7.214 0 0 0 7.214 32h17.572A7.214 7.214 0 0 0 32 24.786V7.214A7.214 7.214 0 0 0 24.786 0Z" fill="#303A56"/><path d="M26.666 14.492c0-4.774-4.786-8.658-10.669-8.658-5.883 0-10.669 3.884-10.669 8.658 0 4.28 3.8 7.865 8.922 8.542.348.075.821.229.94.526.108.27.071.693.035.965l-.152.913c-.047.27-.215 1.055.924.576 1.14-.479 6.144-3.618 8.382-6.195 1.546-1.695 2.287-3.419 2.287-5.327Z" fill="#fff"/><path d="M23.116 17.249h-3a.2.2 0 0 1-.2-.2v-4.655a.2.2 0 0 1 .2-.2h3a.2.2 0 0 1 .2.2v.757a.2.2 0 0 1-.2.2h-2.037v.785h2.037a.2.2 0 0 1 .2.2v.764a.2.2 0 0 1-.2.2h-2.037v.786h2.037a.2.2 0 0 1 .2.2v.756a.198.198 0 0 1-.122.191.2.2 0 0 1-.078.016ZM12.029 17.249a.2.2 0 0 0 .2-.2v-.756a.2.2 0 0 0-.2-.2H9.992v-3.7a.2.2 0 0 0-.2-.2h-.76a.2.2 0 0 0-.2.2v4.653a.2.2 0 0 0 .2.2h3l-.003.003ZM13.833 12.185h-.756a.204.204 0 0 0-.204.204v4.656c0 .113.091.204.204.204h.756a.204.204 0 0 0 .204-.204v-4.656a.204.204 0 0 0-.204-.204ZM18.984 12.185h-.756a.2.2 0 0 0-.2.2v2.766l-2.13-2.877a.114.114 0 0 0-.017-.021l-.012-.012-.01-.009h-.007l-.01-.008h-.007l-.01-.006h-.848a.2.2 0 0 0-.2.2v4.656a.2.2 0 0 0 .2.2h.757a.2.2 0 0 0 .2-.2v-2.793l2.133 2.88a.2.2 0 0 0 .052.052l.012.008h.006l.01.005h.031a.24.24 0 0 0 .054.007h.752a.2.2 0 0 0 .2-.2v-4.644a.2.2 0 0 0-.2-.204Z" fill="#303A56"/></g><defs><clipPath id="a"><path fill="#fff" d="M0 0h32v32H0z"/></clipPath></defs></svg>