<?xml version="1.0" encoding="UTF-8"?>
<svg id="_レイヤー_2" data-name="レイヤー 2" xmlns="http://www.w3.org/2000/svg" viewBox="0 0 33.3 20">
  <defs>
    <style>
      .cls-1 {
        fill: #fff;
        stroke-width: 0px;
      }
    </style>
  </defs>
  <g id="_レイヤー_1-2" data-name="レイヤー 1">
    <path class="cls-1" d="M23.59,5.09l1.95,2.29c.22.26.42.47.5.59.58.58.91,1.36.91,2.18-.05.96-.68,1.62-1.26,2.32l-1.36,1.6-.71.83s-.04.06-.05.1c0,.04,0,.08.02.11.02.03.04.06.08.08.03.02.07.03.11.03h7.12c1.09,0,2.46.91,2.38,2.3,0,.63-.26,1.23-.71,1.68-.45.45-1.06.7-1.7.7h-11.14c-.73,0-2.7.08-3.26-1.6-.12-.35-.13-.73-.05-1.09.16-.53.41-1.03.75-1.48.56-.83,1.17-1.66,1.77-2.47.77-1.05,1.56-2.08,2.34-3.15.03-.03.04-.08.04-.12s-.02-.09-.04-.12l-2.83-3.32s-.04-.04-.07-.06c-.03-.01-.06-.02-.09-.02s-.06,0-.09.02c-.03.01-.05.03-.07.06-.76,1.01-4.08,5.48-4.79,6.38-.71.9-2.45.95-3.42,0l-4.43-4.38s-.06-.05-.1-.05c-.04,0-.08,0-.12.01-.04.02-.07.04-.09.07-.02.03-.03.07-.03.11v8.42c.01.6-.17,1.18-.51,1.68s-.84.87-1.41,1.07c-.36.12-.75.16-1.14.11-.38-.05-.75-.2-1.06-.42-.31-.22-.57-.51-.75-.85-.18-.34-.27-.71-.27-1.09V2.47c.03-.55.22-1.07.57-1.5C.91.55,1.39.24,1.92.09c.46-.12.94-.12,1.4,0,.46.12.87.36,1.21.69l6.81,6.72s.05.04.07.05c.03,0,.06.01.09.01.03,0,.06-.01.08-.03.03-.01.05-.03.06-.06L16.47.88c.22-.27.5-.48.82-.63.32-.15.66-.23,1.02-.23h12.58c.34,0,.68.07,1,.21.31.14.59.35.82.6.23.26.4.56.49.88.1.32.13.67.08,1-.09.58-.39,1.12-.85,1.5-.46.38-1.04.59-1.64.58h-7.04s-.07.01-.1.03c-.03.02-.05.04-.07.08-.02.03-.02.07-.02.1s.01.07.03.1Z"/>
  </g>
</svg>