<svg width="27" height="30" fill="none" xmlns="http://www.w3.org/2000/svg"><path d="M10.197 11.67v-1.156a8.904 8.904 0 0 0-1.21-.088C4.03 10.426 0 14.458 0 19.413c0 3.04 1.519 5.73 3.836 7.357a8.95 8.95 0 0 1-2.413-6.119c0-4.884 3.917-8.867 8.774-8.981Z" fill="#fff" fill-opacity=".5"/><path d="M10.409 24.755a4.107 4.107 0 0 0 4.096-3.95l.008-19.566h3.574A6.767 6.767 0 0 1 17.973 0H13.09l-.008 19.567a4.105 4.105 0 0 1-4.096 3.949 4.072 4.072 0 0 1-1.904-.471 4.097 4.097 0 0 0 3.327 1.71ZM24.764 7.88V6.793a6.75 6.75 0 0 1-3.698-1.1 6.794 6.794 0 0 0 3.699 2.187" fill="#fff" fill-opacity=".5"/><path d="M21.066 5.693a6.763 6.763 0 0 1-1.671-4.453h-1.308a6.805 6.805 0 0 0 2.979 4.453Zm-12.08 9.615a4.109 4.109 0 0 0-4.104 4.104 4.106 4.106 0 0 0 2.2 3.633 4.076 4.076 0 0 1-.777-2.394 4.109 4.109 0 0 1 4.104-4.104c.423 0 .828.07 1.21.19v-4.984a8.904 8.904 0 0 0-1.21-.089c-.071 0-.142.004-.212.006v3.828a4.042 4.042 0 0 0-1.211-.19Z" fill="#fff" fill-opacity=".5"/><path d="M24.765 7.88v3.795c-2.532 0-4.877-.81-6.793-2.184v9.921c0 4.955-4.03 8.987-8.985 8.987a8.933 8.933 0 0 1-5.15-1.63 8.96 8.96 0 0 0 6.572 2.868c4.955 0 8.986-4.03 8.986-8.985V10.73a11.611 11.611 0 0 0 6.793 2.184V8.031c-.489 0-.964-.053-1.424-.152" fill="#fff" fill-opacity=".5"/><path d="M17.971 19.412V9.49a11.609 11.609 0 0 0 6.793 2.185V7.88a6.794 6.794 0 0 1-3.699-2.187 6.805 6.805 0 0 1-2.978-4.453h-3.575l-.007 19.566a4.106 4.106 0 0 1-4.097 3.95 4.098 4.098 0 0 1-3.326-1.71 4.107 4.107 0 0 1-2.2-3.634 4.109 4.109 0 0 1 4.104-4.104c.422 0 .827.07 1.21.19V11.67c-4.856.114-8.773 4.097-8.773 8.981 0 2.363.918 4.513 2.413 6.119a8.932 8.932 0 0 0 5.15 1.628c4.955 0 8.985-4.031 8.985-8.986Z" fill="#fff"/></svg>