<svg width="30" height="22" fill="none" xmlns="http://www.w3.org/2000/svg"><path d="M24.96 1.843A23.147 23.147 0 0 0 19.095 0c-.253.457-.548 1.07-.751 1.56a21.53 21.53 0 0 0-6.498 0 16.675 16.675 0 0 0-.76-1.56 23.07 23.07 0 0 0-5.868 1.847C1.51 7.454.503 12.922 1.005 18.313c2.462 1.838 4.847 2.954 7.192 3.685a17.882 17.882 0 0 0 1.54-2.537 15.142 15.142 0 0 1-2.426-1.18c.204-.15.403-.308.595-.47 4.676 2.187 9.757 2.187 14.378 0 .194.162.393.32.594.47-.769.463-1.582.86-2.43 1.183.445.89.96 1.74 1.54 2.536 2.348-.73 4.735-1.847 7.196-3.687.59-6.249-1.008-11.667-4.225-16.47ZM10.373 14.997c-1.404 0-2.555-1.31-2.555-2.907 0-1.595 1.126-2.908 2.555-2.908 1.428 0 2.58 1.31 2.555 2.908.002 1.596-1.127 2.907-2.555 2.907Zm9.442 0c-1.404 0-2.555-1.31-2.555-2.907 0-1.595 1.127-2.908 2.555-2.908 1.428 0 2.58 1.31 2.555 2.908 0 1.596-1.127 2.907-2.555 2.907Z" fill="#fff"/></svg>