<svg width="29" height="23" fill="none" xmlns="http://www.w3.org/2000/svg"><path d="M8.885 23C19.56 23 25.4 14.149 25.4 6.486c0-.25 0-.498-.012-.747a11.824 11.824 0 0 0 2.898-3.011c-1.041.464-2.162.77-3.34.917A5.84 5.84 0 0 0 27.506.43a11.545 11.545 0 0 1-3.69 1.404A5.793 5.793 0 0 0 19.582 0a5.811 5.811 0 0 0-5.807 5.807c0 .452.057.894.147 1.324-4.822-.238-9.1-2.558-11.964-6.067a5.805 5.805 0 0 0-.78 2.92 5.82 5.82 0 0 0 2.58 4.833 5.87 5.87 0 0 1-2.626-.724v.08a5.816 5.816 0 0 0 4.652 5.693 5.656 5.656 0 0 1-1.528.203c-.374 0-.736-.034-1.087-.102a5.804 5.804 0 0 0 5.422 4.03 11.64 11.64 0 0 1-7.21 2.49c-.464 0-.928-.022-1.381-.079A16.51 16.51 0 0 0 8.885 23Z" fill="#1D9BF0"/></svg>