<svg width="30" height="27" fill="none" xmlns="http://www.w3.org/2000/svg"><path d="m1.731 15.159.102-.16L7.975 5.39a.21.21 0 0 1 .369.027c1.026 2.3 1.911 5.16 1.497 6.94-.178.733-.663 1.725-1.209 2.642-.07.133-.147.264-.23.39a.209.209 0 0 1-.175.093H1.911a.21.21 0 0 1-.18-.323Z" fill="#2081E2"/><path d="M29.11 16.945v1.52a.218.218 0 0 1-.131.2c-.475.203-2.103.95-2.78 1.892-1.727 2.404-3.047 5.841-5.997 5.841H7.896C3.534 26.398 0 22.851 0 18.475v-.14c0-.117.095-.212.211-.212h6.86c.136 0 .236.127.224.26-.049.446.033.902.244 1.317a2.414 2.414 0 0 0 2.164 1.344H13.1v-2.651H9.742a.216.216 0 0 1-.175-.34l.122-.18c.318-.45.771-1.152 1.222-1.95a15.26 15.26 0 0 0 .847-1.69c.049-.105.087-.212.126-.316.066-.184.134-.357.182-.529.049-.145.087-.298.126-.441.114-.49.163-1.01.163-1.548 0-.211-.01-.432-.03-.643-.009-.23-.038-.46-.067-.691a7.131 7.131 0 0 0-.095-.616 10.358 10.358 0 0 0-.194-.922l-.027-.117c-.058-.21-.106-.412-.174-.623a23.535 23.535 0 0 0-.646-1.912c-.084-.24-.181-.47-.278-.7-.144-.348-.29-.663-.423-.961-.067-.136-.126-.26-.184-.386a13.8 13.8 0 0 0-.201-.422c-.049-.104-.105-.201-.143-.298l-.415-.767a.135.135 0 0 1 .153-.197l2.595.704h.007l.01.002.342.095.376.107.139.039V1.548c0-.745.596-1.349 1.334-1.349.368 0 .703.15.943.395.24.245.39.58.39.954v2.29l.277.077a.22.22 0 0 1 .064.032l.288.218c.097.078.201.172.328.27.25.2.548.46.875.759.088.075.173.153.25.23.422.393.895.854 1.347 1.364.126.143.25.288.376.441.126.155.26.308.376.461.152.204.317.415.46.636.068.104.146.21.212.315.184.279.346.568.502.856.065.134.133.28.191.422.173.386.309.779.396 1.172.026.085.046.177.056.26v.019c.029.116.038.24.048.366a3.916 3.916 0 0 1-.21 1.718c-.06.165-.117.337-.193.5a6.78 6.78 0 0 1-.521.99c-.066.116-.143.24-.22.356-.086.123-.173.24-.25.354-.108.146-.221.298-.338.434a4.628 4.628 0 0 1-.327.413c-.163.191-.318.373-.48.548-.098.114-.202.23-.309.335-.104.116-.21.22-.308.317-.162.163-.298.289-.412.393l-.267.245a.218.218 0 0 1-.143.054h-2.067v2.651h2.6c.583 0 1.136-.206 1.582-.585.153-.133.82-.71 1.608-1.581.027-.03.061-.051.1-.06l7.183-2.077a.212.212 0 0 1 .269.204Z" fill="#2081E2"/></svg>