<svg width="27" height="31" fill="none" xmlns="http://www.w3.org/2000/svg"><path d="M10.197 12.307v-1.155a8.92 8.92 0 0 0-1.21-.089C4.03 11.063 0 15.095 0 20.05a8.98 8.98 0 0 0 3.836 7.357 8.95 8.95 0 0 1-2.413-6.118c0-4.885 3.917-8.868 8.774-8.982Z" fill="#00F2EA"/><path d="M10.409 25.393a4.107 4.107 0 0 0 4.096-3.95l.008-19.567h3.574a6.767 6.767 0 0 1-.115-1.239H13.09l-.008 19.567a4.105 4.105 0 0 1-4.096 3.95 4.074 4.074 0 0 1-1.904-.472 4.098 4.098 0 0 0 3.327 1.71ZM24.764 8.518V7.43a6.75 6.75 0 0 1-3.698-1.1 6.794 6.794 0 0 0 3.699 2.187" fill="#00F2EA"/><path d="M21.066 6.33a6.763 6.763 0 0 1-1.671-4.453h-1.308a6.805 6.805 0 0 0 2.979 4.453Zm-12.08 9.615a4.109 4.109 0 0 0-4.104 4.104 4.106 4.106 0 0 0 2.2 3.633 4.076 4.076 0 0 1-.777-2.393 4.109 4.109 0 0 1 4.104-4.105c.423 0 .828.07 1.21.19V12.39a8.92 8.92 0 0 0-1.21-.088c-.071 0-.142.004-.212.005v3.829a4.042 4.042 0 0 0-1.211-.19Z" fill="#FF004F"/><path d="M24.765 8.518v3.794c-2.532 0-4.877-.81-6.793-2.184v9.922c0 4.955-4.03 8.986-8.985 8.986a8.933 8.933 0 0 1-5.15-1.629 8.96 8.96 0 0 0 6.572 2.868c4.955 0 8.986-4.031 8.986-8.986v-9.921a11.61 11.61 0 0 0 6.793 2.184V8.668c-.489 0-.964-.053-1.424-.151" fill="#FF004F"/><path d="M17.971 20.05v-9.922a11.609 11.609 0 0 0 6.793 2.184V8.518a6.794 6.794 0 0 1-3.699-2.188 6.805 6.805 0 0 1-2.978-4.453h-3.575l-.007 19.566a4.106 4.106 0 0 1-4.097 3.95 4.098 4.098 0 0 1-3.326-1.71 4.107 4.107 0 0 1-2.2-3.633 4.109 4.109 0 0 1 4.104-4.104c.422 0 .827.069 1.21.19v-3.829c-4.856.114-8.773 4.097-8.773 8.982 0 2.362.918 4.512 2.413 6.118a8.933 8.933 0 0 0 5.15 1.629c4.955 0 8.985-4.032 8.985-8.987Z" fill="#000"/></svg>