<svg width="34" height="34" fill="none" xmlns="http://www.w3.org/2000/svg"><g clip-path="url(#a)"><path d="M26.335 0H7.665A7.665 7.665 0 0 0 0 7.665v18.67A7.665 7.665 0 0 0 7.665 34h18.67A7.665 7.665 0 0 0 34 26.335V7.665A7.665 7.665 0 0 0 26.335 0Z" fill="#303A56"/><path d="M28.333 15.398c0-5.073-5.085-9.2-11.336-9.2-6.25 0-11.336 4.127-11.336 9.2 0 4.547 4.038 8.356 9.48 9.076.37.08.872.243.999.558.114.287.075.737.037 1.026l-.162.97c-.05.287-.228 1.12.982.612 1.21-.51 6.528-3.844 8.906-6.582 1.642-1.801 2.43-3.633 2.43-5.66Z" fill="#fff"/><path d="M24.561 18.327h-3.187a.213.213 0 0 1-.213-.212v-4.946a.212.212 0 0 1 .213-.213h3.187a.213.213 0 0 1 .213.213v.804a.213.213 0 0 1-.213.212h-2.164v.835h2.164a.212.212 0 0 1 .213.212v.812a.213.213 0 0 1-.213.212h-2.164v.835h2.164a.212.212 0 0 1 .213.213v.803a.211.211 0 0 1-.213.22ZM12.78 18.327a.212.212 0 0 0 .213-.212v-.804a.213.213 0 0 0-.212-.212h-2.165v-3.931a.212.212 0 0 0-.212-.213h-.808a.213.213 0 0 0-.212.213v4.943a.213.213 0 0 0 .212.213h3.188l-.003.003ZM14.698 12.947h-.803a.217.217 0 0 0-.217.216v4.947c0 .12.097.217.216.217h.804c.12 0 .216-.097.216-.217v-4.947a.217.217 0 0 0-.216-.216ZM20.17 12.947h-.803a.212.212 0 0 0-.213.212v2.939l-2.263-3.057a.13.13 0 0 0-.018-.022l-.013-.013-.011-.01h-.007l-.011-.008h-.007l-.011-.006H15.912a.213.213 0 0 0-.212.212v4.947a.213.213 0 0 0 .213.213h.804a.213.213 0 0 0 .213-.213v-2.967l2.266 3.06c.015.021.033.04.055.055l.013.008h.006l.01.006h.034a.257.257 0 0 0 .057.007h.8a.213.213 0 0 0 .212-.212v-4.935a.212.212 0 0 0-.213-.216Z" fill="#303A56"/></g><defs><clipPath id="a"><path fill="#fff" d="M0 0h34v34H0z"/></clipPath></defs></svg>