<svg width="30" height="28" fill="none" xmlns="http://www.w3.org/2000/svg"><path d="m1.835 15.86.101-.16L8.08 6.092a.21.21 0 0 1 .368.026c1.026 2.3 1.912 5.16 1.497 6.94-.177.733-.662 1.725-1.208 2.642-.07.134-.148.265-.23.391a.209.209 0 0 1-.175.092H2.014a.21.21 0 0 1-.18-.322Z" fill="#fff"/><path d="M29.213 17.646v1.521a.218.218 0 0 1-.13.199c-.476.204-2.104.95-2.78 1.892-1.728 2.404-3.047 5.841-5.997 5.841H8c-4.362 0-7.896-3.546-7.896-7.922v-.141c0-.116.094-.211.21-.211h6.86c.137 0 .236.126.224.26-.049.446.034.902.245 1.317a2.414 2.414 0 0 0 2.164 1.344h3.396v-2.652H9.846a.216.216 0 0 1-.175-.34c.036-.055.078-.113.121-.179.318-.451.772-1.152 1.223-1.95.308-.539.606-1.114.846-1.691.05-.104.088-.211.127-.315.065-.185.133-.357.182-.53.048-.145.087-.298.126-.44.114-.49.162-1.01.162-1.548 0-.212-.01-.432-.029-.643-.01-.23-.039-.461-.068-.692a7.134 7.134 0 0 0-.094-.616 10.394 10.394 0 0 0-.194-.922l-.027-.116c-.058-.211-.107-.412-.175-.623a23.535 23.535 0 0 0-.645-1.912c-.085-.24-.182-.47-.279-.701-.143-.347-.289-.662-.422-.96-.068-.137-.126-.26-.184-.386a14.04 14.04 0 0 0-.202-.423c-.048-.104-.104-.2-.143-.298l-.415-.766a.135.135 0 0 1 .153-.197l2.596.704h.007l.01.002.342.095.376.106.138.04V2.248c0-.744.597-1.348 1.334-1.348.369 0 .704.15.944.395.24.245.39.58.39.953v2.29l.277.078a.22.22 0 0 1 .063.031c.068.051.165.127.289.219.097.077.201.172.327.269.25.201.548.46.876.76.087.075.172.152.25.23.422.393.895.854 1.346 1.363.126.143.25.289.376.442.126.155.26.308.376.46.153.204.318.415.461.636.068.104.146.211.211.315.184.28.347.568.502.857.066.133.134.279.192.422.172.386.308.778.395 1.171.027.085.046.178.056.26v.02c.03.116.039.24.049.366a3.92 3.92 0 0 1-.211 1.717c-.059.165-.117.337-.192.5a6.773 6.773 0 0 1-.522.99c-.065.116-.143.24-.22.356-.085.124-.173.24-.25.354-.107.146-.221.299-.337.435a4.614 4.614 0 0 1-.328.412c-.162.192-.318.374-.48.548-.097.114-.202.23-.308.335-.105.117-.211.22-.308.318a12.35 12.35 0 0 1-.413.393l-.267.245a.218.218 0 0 1-.143.053h-2.067v2.652h2.6c.583 0 1.136-.206 1.583-.585.152-.133.82-.71 1.608-1.582.027-.029.06-.05.1-.06l7.182-2.077a.212.212 0 0 1 .27.204Z" fill="#fff"/></svg>