<svg width="27" height="30" fill="none" xmlns="http://www.w3.org/2000/svg"><path d="M10.21 11.851v-1.156a8.936 8.936 0 0 0-1.211-.088c-4.955 0-8.986 4.032-8.986 8.987 0 3.04 1.519 5.73 3.836 7.357a8.95 8.95 0 0 1-2.413-6.118c0-4.885 3.917-8.868 8.774-8.982Z" fill="#fff" fill-opacity=".5"/><path d="M10.422 24.936a4.107 4.107 0 0 0 4.096-3.95l.008-19.566H18.1a6.767 6.767 0 0 1-.115-1.239h-4.882l-.008 19.567a4.105 4.105 0 0 1-4.096 3.949 4.072 4.072 0 0 1-1.904-.471 4.098 4.098 0 0 0 3.327 1.71ZM24.777 8.063V6.974a6.75 6.75 0 0 1-3.699-1.1 6.794 6.794 0 0 0 3.7 2.188" fill="#fff" fill-opacity=".5"/><path d="M21.078 5.874a6.763 6.763 0 0 1-1.67-4.453H18.1a6.804 6.804 0 0 0 2.978 4.453Zm-12.08 9.615a4.109 4.109 0 0 0-4.103 4.104 4.106 4.106 0 0 0 2.199 3.633 4.076 4.076 0 0 1-.777-2.393 4.109 4.109 0 0 1 4.104-4.105c.423 0 .829.07 1.211.19v-4.984a8.92 8.92 0 0 0-1.21-.088c-.072 0-.142.004-.212.005v3.828a4.048 4.048 0 0 0-1.211-.19Z" fill="#fff" fill-opacity=".5"/><path d="M24.777 8.062v3.794c-2.532 0-4.877-.81-6.792-2.184v9.922c0 4.955-4.03 8.986-8.986 8.986a8.933 8.933 0 0 1-5.15-1.63 8.96 8.96 0 0 0 6.573 2.869c4.955 0 8.986-4.032 8.986-8.986v-9.922a11.61 11.61 0 0 0 6.793 2.185V8.212c-.489 0-.964-.053-1.424-.151" fill="#fff" fill-opacity=".5"/><path d="M17.984 19.593V9.672a11.609 11.609 0 0 0 6.792 2.184V8.062a6.794 6.794 0 0 1-3.698-2.188 6.804 6.804 0 0 1-2.979-4.453h-3.574l-.008 19.566a4.106 4.106 0 0 1-4.096 3.95 4.098 4.098 0 0 1-3.326-1.71 4.107 4.107 0 0 1-2.2-3.633 4.109 4.109 0 0 1 4.104-4.104c.422 0 .827.069 1.21.19V11.85c-4.857.114-8.773 4.097-8.773 8.982 0 2.362.917 4.512 2.413 6.118a8.932 8.932 0 0 0 5.15 1.628c4.955 0 8.985-4.03 8.985-8.986Z" fill="#fff"/></svg>